{
  "source": "C:\\Users\\Peter\\Desktop\\stuff\\MIUN\\quantitative_research\\video_compression\\videos\\HEVC_CLASS_B\\Kimono_1920x1080_24.y4m",
  "output": "C:\\Users\\Peter\\Desktop\\stuff\\MIUN\\quantitative_research\\video_compression\\compressed_videos\\HEVC_CLASS_B\\h264\\1\\Kimono_1920x1080_24_h264.mp4",
  "codec": "h264",
  "ok": "Input #0, yuv4mpegpipe, from 'C:\\Users\\Peter\\Desktop\\stuff\\MIUN\\quantitative_research\\video_compression\\videos\\HEVC_CLASS_B\\Kimono_1920x1080_24.y4m':\n  Duration: 00:00:10.00, start: 0.000000, bitrate: 597198 kb/s\n  Stream #0:0: Video: rawvideo (I420 / 0x30323449), yuv420p(progressive), 1920x1080, 24 fps, 24 tbr, 24 tbn\n[out#0/mp4 @ 000001ccacc69880] Codec AVOption b:a (set bitrate (in bits/s)) has not been used for any stream. The most likely reason is either wrong type (e.g. a video option with no video streams) or that it is a private option of some decoder which was not actually used for any stream.\nStream mapping:\n  Stream #0:0 -> #0:0 (rawvideo (native) -> h264 (libx264))\nPress [q] to stop, [?] for help\n[libx264 @ 000001ccacc6c8c0] using cpu capabilities: MMX2 SSE2Fast SSSE3 SSE4.2 AVX FMA3 BMI2 AVX2\n[libx264 @ 000001ccacc6c8c0] profile High, level 5.0, 4:2:0, 8-bit\n[libx264 @ 000001ccacc6c8c0] 264 - core 165 r3222 b35605a - H.264/MPEG-4 AVC codec - Copyleft 2003-2025 - http://www.videolan.org/x264.html - options: cabac=1 ref=5 deblock=1:0:0 analyse=0x3:0x113 me=hex subme=8 psy=1 psy_rd=1.00:0.00 mixed_ref=1 me_range=16 chroma_me=1 trellis=2 8x8dct=1 cqm=0 deadzone=21,11 fast_pskip=1 chroma_qp_offset=-2 threads=18 lookahead_threads=3 sliced_threads=0 nr=0 decimate=1 interlaced=0 bluray_compat=0 constrained_intra=0 bframes=3 b_pyramid=2 b_adapt=1 b_bias=0 direct=3 weightb=1 open_gop=0 weightp=2 keyint=250 keyint_min=24 scenecut=40 intra_refresh=0 rc_lookahead=50 rc=cbr mbtree=1 bitrate=1000 ratetol=1.0 qcomp=0.60 qpmin=0 qpmax=69 qpstep=4 vbv_maxrate=1000 vbv_bufsize=1000 nal_hrd=none filler=0 ip_ratio=1.40 aq=1:1.00\nOutput #0, mp4, to 'C:\\Users\\Peter\\Desktop\\stuff\\MIUN\\quantitative_research\\video_compression\\compressed_videos\\HEVC_CLASS_B\\h264\\1\\Kimono_1920x1080_24_h264.mp4':\n  Metadata:\n    encoder         : Lavf62.3.100\n  Stream #0:0: Video: h264 (avc1 / 0x31637661), yuv420p(tv, progressive), 1920x1080, q=2-31, 1000 kb/s, 24 fps, 12288 tbn\n    Metadata:\n      encoder         : Lavc62.11.100 libx264\n    Side data:\n      cpb: bitrate max/min/avg: 1000000/0/1000000 buffer size: 1000000 vbv_delay: N/A\nframe=    0 fps=0.0 q=0.0 size=       0KiB time=N/A bitrate=N/A speed=N/A elapsed=0:00:00.55    \nframe=    0 fps=0.0 q=0.0 size=       0KiB time=N/A bitrate=N/A speed=N/A elapsed=0:00:01.19    \nframe=    0 fps=0.0 q=0.0 size=       0KiB time=N/A bitrate=N/A speed=N/A elapsed=0:00:01.72    \nframe=   18 fps=7.8 q=43.0 size=       0KiB time=00:00:00.58 bitrate=   0.7kbits/s speed=0.252x elapsed=0:00:02.31    \nframe=   36 fps= 12 q=43.0 size=       0KiB time=00:00:01.41 bitrate=   0.3kbits/s speed=0.481x elapsed=0:00:02.94    \nframe=   56 fps= 16 q=43.0 size=       0KiB time=00:00:02.12 bitrate=   0.2kbits/s speed=0.588x elapsed=0:00:03.61    \nframe=   73 fps= 17 q=43.0 size=     256KiB time=00:00:02.95 bitrate= 709.0kbits/s speed=0.705x elapsed=0:00:04.19    \nframe=   89 fps= 19 q=43.0 size=     256KiB time=00:00:03.62 bitrate= 578.6kbits/s speed=0.756x elapsed=0:00:04.79    \nframe=  110 fps= 20 q=42.0 size=     256KiB time=00:00:04.45 bitrate= 470.5kbits/s speed=0.827x elapsed=0:00:05.39    \nframe=  129 fps= 22 q=43.0 size=     256KiB time=00:00:05.29 bitrate= 396.4kbits/s speed=0.887x elapsed=0:00:05.96    \nframe=  148 fps= 23 q=41.0 size=     512KiB time=00:00:06.04 bitrate= 694.3kbits/s speed=0.92x elapsed=0:00:06.56    \nframe=  172 fps= 24 q=39.0 size=     512KiB time=00:00:06.91 bitrate= 606.5kbits/s speed=0.961x elapsed=0:00:07.19    \nframe=  197 fps= 25 q=39.0 size=     512KiB time=00:00:08.00 bitrate= 524.3kbits/s speed=1.02x elapsed=0:00:07.84    \nframe=  229 fps= 27 q=-1.0 size=     768KiB time=00:00:09.37 bitrate= 671.1kbits/s speed=1.11x elapsed=0:00:08.44    \n[mp4 @ 000001ccacc69980] Starting second pass: moving the moov atom to the beginning of the file\n[out#0/mp4 @ 000001ccacc69880] video:866KiB audio:0KiB subtitle:0KiB other streams:0KiB global headers:0KiB muxing overhead: 0.420365%\nframe=  240 fps= 27 q=-1.0 Lsize=     870KiB time=00:00:09.91 bitrate= 718.4kbits/s speed=1.12x elapsed=0:00:08.84    \n[libx264 @ 000001ccacc6c8c0] frame I:2     Avg QP:37.90  size: 33521\n[libx264 @ 000001ccacc6c8c0] frame P:60    Avg QP:40.50  size:  7524\n[libx264 @ 000001ccacc6c8c0] frame B:178   Avg QP:44.73  size:  2065\n[libx264 @ 000001ccacc6c8c0] consecutive B-frames:  0.8%  0.0%  2.5% 96.7%\n[libx264 @ 000001ccacc6c8c0] mb I  I16..4: 42.1% 54.4%  3.5%\n[libx264 @ 000001ccacc6c8c0] mb P  I16..4:  1.5%  1.3%  0.0%  P16..4: 32.8%  2.3%  2.4%  0.0%  0.0%    skip:59.8%\n[libx264 @ 000001ccacc6c8c0] mb B  I16..4:  0.0%  0.0%  0.0%  B16..8: 29.9%  0.2%  0.0%  direct: 0.0%  skip:69.8%  L0:35.3% L1:64.6% BI: 0.1%\n[libx264 @ 000001ccacc6c8c0] 8x8 transform intra:50.6% inter:90.5%\n[libx264 @ 000001ccacc6c8c0] direct mvs  spatial:94.4% temporal:5.6%\n[libx264 @ 000001ccacc6c8c0] coded y,uvDC,uvAC intra: 23.1% 27.5% 3.2% inter: 1.0% 1.2% 0.0%\n[libx264 @ 000001ccacc6c8c0] i16 v,h,dc,p: 28% 29%  8% 34%\n[libx264 @ 000001ccacc6c8c0] i8 v,h,dc,ddl,ddr,vr,hd,vl,hu:  6%  4% 14% 11% 15% 11% 15% 10% 14%\n[libx264 @ 000001ccacc6c8c0] i4 v,h,dc,ddl,ddr,vr,hd,vl,hu:  5%  4%  6% 11% 16% 12% 19%  8% 18%\n[libx264 @ 000001ccacc6c8c0] i8c dc,h,v,p: 63% 30%  6%  2%\n[libx264 @ 000001ccacc6c8c0] Weighted P-Frames: Y:0.0% UV:0.0%\n[libx264 @ 000001ccacc6c8c0] ref P L0: 54.0% 10.4% 23.5%  5.9%  6.0%\n[libx264 @ 000001ccacc6c8c0] ref B L0: 91.1%  7.1%  1.4%  0.4%\n[libx264 @ 000001ccacc6c8c0] ref B L1: 97.7%  2.3%\n[libx264 @ 000001ccacc6c8c0] kb/s:708.87\n",
  "seconds": 9.726638078689575,
  "probe_out": {}
}